<svg xmlns="http://www.w3.org/2000/svg" width="720" height="540" viewBox="0 0 720 540">
  <defs>
    <linearGradient id="atelier-bg" x1="0" x2="1" y1="0" y2="1">
      <stop offset="0" stop-color="#0f172a"/>
      <stop offset="1" stop-color="#38bdf8"/>
    </linearGradient>
    <linearGradient id="atelier-grid" x1="0" x2="1" y1="0" y2="1">
      <stop offset="0" stop-color="#0ea5e9" stop-opacity="0.6"/>
      <stop offset="1" stop-color="#22d3ee" stop-opacity="0.15"/>
    </linearGradient>
  </defs>
  <rect width="720" height="540" rx="36" fill="url(#atelier-bg)"/>
  <g stroke="url(#atelier-grid)" stroke-width="1.4">
    <path d="M180 120h360v300H180z" opacity="0.6"/>
    <path d="M240 160h240v220H240z" opacity="0.4"/>
    <path d="M300 200h120v140H300z" opacity="0.2"/>
    <path d="M180 320h360" opacity="0.3"/>
    <path d="M180 260h360" opacity="0.2"/>
  </g>
  <rect x="220" y="180" width="280" height="80" rx="18" fill="#0f172a" opacity="0.7"/>
  <rect x="220" y="280" width="280" height="80" rx="18" fill="#0f172a" opacity="0.5"/>
  <rect x="280" y="200" width="160" height="6" rx="3" fill="#38bdf8" opacity="0.55"/>
  <rect x="280" y="220" width="140" height="6" rx="3" fill="#38bdf8" opacity="0.4"/>
  <rect x="280" y="300" width="160" height="6" rx="3" fill="#38bdf8" opacity="0.55"/>
  <rect x="280" y="320" width="120" height="6" rx="3" fill="#38bdf8" opacity="0.4"/>
  <circle cx="500" cy="160" r="60" fill="#22d3ee" opacity="0.3"/>
  <circle cx="220" cy="380" r="52" fill="#22d3ee" opacity="0.2"/>
</svg>
